# xmcd CD database file
# Copyright (C) 1996 Ti Kan
#
# Track frame offsets:
#	150
#	24945
#	52602
#	71941
#	91005
#	112297
#	138033
#	161541
#	176234
#	196949
#	213173
#	231670
#	246989
#	268648
# Disc length: 3914 seconds
#
# Revision: 1
# Processed by: cddbd v1.4PL0 Copyright (c) Steve Scherf et al.
# Submitted via: CDCOPY 4.900
#
DISCID=c30f480e
DTITLE=MightyKat - Confidence
DYEAR=1900
DGENRE=
TTITLE0=Deadbeat - Cesium Beam
TTITLE1=Altitude - Further
TTITLE2=Salz 2000 - 2-B
TTITLE3=Marku Güntner - Sclüssel
TTITLE4=Morgan Page - Pathways
TTITLE5=Swayzak - Ping Pong
TTITLE6=Gamma 3000 - Feeling Love
TTITLE7=Dimbiman - Do The Dimbi
TTITLE8=Akufen - 2.0
TTITLE9=Mike Shannon - Slackerjack
TTITLE10=Twerk - Cosmiques Deliria
TTITLE11=Akufen - Architextures (3)
TTITLE12=Ricardo Villalobos - Laser@Present
TTITLE13=DJ Champion - Holer
EXTD=
EXTT0=
EXTT1=
EXTT2=
EXTT3=
EXTT4=
EXTT5=
EXTT6=
EXTT7=
EXTT8=
EXTT9=
EXTT10=
EXTT11=
EXTT12=
EXTT13=
PLAYORDER=
